<svg width="432" height="201" viewBox="0 0 432 201" fill="none" xmlns="http://www.w3.org/2000/svg">
<path d="M2.50068 45.9193L2.82399 45.0084L3.1473 44.0984L3.47061 43.1902L3.79392 42.2847L4.11722 41.3827L4.44053 40.4853L4.76384 39.5932L5.08715 38.7073L5.41046 37.8286L5.73377 36.9578L6.05707 36.0959L6.38038 35.2437L6.70369 34.402L7.027 33.5717L7.35031 32.7536L7.67361 31.9485L7.99692 31.1571L8.32023 30.3803L8.64354 29.6189L8.96685 28.8736L9.29016 28.145L9.61346 27.434L9.93677 26.7413L10.2601 26.0675L10.5834 25.4132L10.9067 24.7792L11.23 24.1661L11.5533 23.5744L11.8766 23.0048L12.1999 22.4578L12.5232 21.934L12.8465 21.4338L13.1699 20.9578L13.4932 20.5064L13.8165 20.0801L14.1398 19.6793L14.4631 19.3044L14.7864 18.9558L15.1097 18.6338L15.433 18.3387L15.7563 18.0708L16.0796 17.8304L16.4029 17.6177L16.7262 17.433L17.0496 17.2764L17.3729 17.148L17.6962 17.048L18.0195 16.9765L18.3428 16.9336L18.6661 16.9193L18.9894 16.9336L19.3127 16.9765L19.636 17.048L19.9593 17.148L20.2826 17.2764L20.6059 17.433L20.9293 17.6177L21.2526 17.8304L21.5759 18.0708L21.8992 18.3387L22.2225 18.6338L22.5458 18.9558L22.8691 19.3044L23.1924 19.6793L23.5157 20.0801L23.839 20.5064L24.1623 20.9578L24.4856 21.4338L24.809 21.934L25.1323 22.4578L25.4556 23.0048L25.7789 23.5744L26.1022 24.1661L26.4255 24.7792L26.7488 25.4132L27.0721 26.0675L27.3954 26.7413L27.7187 27.434L28.042 28.145L28.3653 28.8736L28.6887 29.6189L29.012 30.3803L29.3353 31.1571L29.6586 31.9485L29.9819 32.7536L30.3052 33.5717L30.6285 34.402L30.9518 35.2437L31.2751 36.0959L31.5984 36.9578L31.9217 37.8286L32.245 38.7073L32.5684 39.5932L32.8917 40.4853L33.215 41.3827L33.5383 42.2847L33.8616 43.1902L34.1849 44.0984L34.5082 45.0084L34.8315 45.9193L35.1548 46.8302L35.4781 47.7402L35.8014 48.6485L36.1247 49.554L36.4481 50.4559L36.7714 51.3534L37.0947 52.2455L37.418 53.1313L37.7413 54.0101L38.0646 54.8808L38.3879 55.7427L38.7112 56.5949L39.0345 57.4366L39.3578 58.2669L39.6811 59.085L40.0044 59.8902L40.3277 60.6815L40.6511 61.4583L40.9744 62.2197L41.2977 62.9651L41.621 63.6936L41.9443 64.4046L42.2676 65.0974L42.5909 65.7712L42.9142 66.4254L43.2375 67.0594L43.5608 67.6725L43.8841 68.2642L44.2074 68.8338L44.5308 69.3808L44.8541 69.9047L45.1774 70.4048L45.5007 70.8808L45.824 71.3322L46.1473 71.7585L46.4706 72.1593L46.7939 72.5342L47.1172 72.8828L47.4405 73.2049L47.7638 73.5L48.0871 73.7678L48.4105 74.0082L48.7338 74.2209L49.0571 74.4057L49.3804 74.5623L49.7037 74.6906L50.027 74.7906L50.3503 74.8621L50.6736 74.905L50.9969 74.9193L51.3202 74.905L51.6435 74.8621L51.9668 74.7906L52.2902 74.6906L52.6135 74.5623L52.9368 74.4057L53.2601 74.2209L53.5834 74.0082L53.9067 73.7678L54.23 73.5L54.5533 73.2049L54.8766 72.8828L55.1999 72.5342L55.5232 72.1593L55.8465 71.7585L56.1699 71.3322L56.4932 70.8808L56.8165 70.4048L57.1398 69.9047L57.4631 69.3808L57.7864 68.8338L58.1097 68.2642L58.433 67.6725L58.7563 67.0594L59.0796 66.4254L59.4029 65.7712L59.7262 65.0974L60.0496 64.4046L60.3729 63.6936L60.6962 62.9651L61.0195 62.2197L61.3428 61.4583L61.6661 60.6815L61.9894 59.8902L62.3127 59.085L62.636 58.2669L62.9593 57.4366L63.2826 56.5949L63.6059 55.7427L63.9293 54.8808L64.2526 54.0101L64.5759 53.1313L64.8992 52.2455L65.2225 51.3534L65.5458 50.4559L65.8691 49.554L66.1924 48.6485L66.5157 47.7402L66.839 46.8302L67.1623 45.9193L67.4856 45.0084L67.809 44.0984L68.1323 43.1902L68.4556 42.2847L68.7789 41.3827L69.1022 40.4853L69.4255 39.5932L69.7488 38.7073L70.0721 37.8286L70.3954 36.9578L70.7187 36.0959L71.042 35.2437L71.3653 34.402L71.6887 33.5717L72.012 32.7536L72.3353 31.9485L72.6586 31.1571L72.9819 30.3803L73.3052 29.6189L73.6285 28.8736L73.9518 28.145L74.2751 27.434L74.5984 26.7413L74.9217 26.0675L75.245 25.4132L75.5683 24.7792L75.8917 24.1661L76.215 23.5744L76.5383 23.0048L76.8616 22.4578L77.1849 21.934L77.5082 21.4338L77.8315 20.9578L78.1548 20.5064L78.4781 20.0801L78.8014 19.6793L79.1247 19.3044L79.448 18.9558L79.7714 18.6338L80.0947 18.3387L80.418 18.0708L80.7413 17.8304L81.0646 17.6177L81.3879 17.433L81.7112 17.2764L82.0345 17.148L82.3578 17.048L82.6811 16.9765L83.0044 16.9336L83.3277 16.9193L83.6511 16.9336L83.9744 16.9765L84.2977 17.048L84.621 17.148L84.9443 17.2764L85.2676 17.433L85.5909 17.6177L85.9142 17.8304L86.2375 18.0708L86.5608 18.3387L86.8841 18.6338L87.2074 18.9558L87.5308 19.3044L87.8541 19.6793L88.1774 20.0801L88.5007 20.5064L88.824 20.9578L89.1473 21.4338L89.4706 21.934L89.7939 22.4578L90.1172 23.0048L90.4405 23.5744L90.7638 24.1661L91.0871 24.7792L91.4105 25.4132L91.7338 26.0675L92.0571 26.7413L92.3804 27.434L92.7037 28.145L93.027 28.8736L93.3503 29.6189L93.6736 30.3803L93.9969 31.1571L94.3202 31.9485L94.6435 32.7536L94.9668 33.5717L95.2902 34.402L95.6135 35.2437L95.9368 36.0959L96.2601 36.9578L96.5834 37.8286L96.9067 38.7073L97.23 39.5932L97.5533 40.4853L97.8766 41.3827L98.1999 42.2847L98.5232 43.1902L98.8465 44.0984L99.1699 45.0084L99.4932 45.9193L99.8165 46.8302L100.14 47.7402L100.463 48.6485L100.786 49.554L101.11 50.4559L101.433 51.3534L101.756 52.2455L102.08 53.1313L102.403 54.0101L102.726 54.8808L103.05 55.7427L103.373 56.5949L103.696 57.4366L104.019 58.2669L104.343 59.085L104.666 59.8902L104.989 60.6815L105.313 61.4583L105.636 62.2197L105.959 62.9651L106.283 63.6936L106.606 64.4046L106.929 65.0974L107.253 65.7712L107.576 66.4254L107.899 67.0594L108.222 67.6725L108.546 68.2642L108.869 68.8338L109.192 69.3808L109.516 69.9047L109.839 70.4048L110.162 70.8808L110.486 71.3322L110.809 71.7585L111.132 72.1593L111.456 72.5342L111.779 72.8828L112.102 73.2049L112.425 73.5L112.749 73.7678L113.072 74.0082L113.395 74.2209L113.719 74.4057L114.042 74.5623L114.365 74.6906L114.689 74.7906L115.012 74.8621L115.335 74.905L115.659 74.9193L115.982 74.905L116.305 74.8621L116.628 74.7906L116.952 74.6906L117.275 74.5623L117.598 74.4057L117.922 74.2209L118.245 74.0082L118.568 73.7678L118.892 73.5L119.215 73.2049L119.538 72.8828L119.862 72.5342L120.185 72.1593L120.508 71.7585L120.832 71.3322L121.155 70.8808L121.478 70.4048L121.801 69.9047L122.125 69.3808L122.448 68.8338L122.771 68.2642L123.095 67.6725L123.418 67.0594L123.741 66.4254L124.065 65.7712L124.388 65.0974L124.711 64.4046L125.035 63.6936L125.358 62.9651L125.681 62.2197L126.004 61.4583L126.328 60.6815L126.651 59.8902L126.974 59.085L127.298 58.2669L127.621 57.4366L127.944 56.5949L128.268 55.7427L128.591 54.8808L128.914 54.0101L129.238 53.1313L129.561 52.2455L129.884 51.3534L130.207 50.4559L130.531 49.554L130.854 48.6485L131.177 47.7402L131.501 46.8302" stroke="#EF7600" stroke-width="5" stroke-miterlimit="10" stroke-linecap="round" stroke-linejoin="round"/>
<path d="M2.50068 155.919L2.82399 155.008L3.1473 154.098L3.47061 153.19L3.79392 152.285L4.11722 151.383L4.44053 150.485L4.76384 149.593L5.08715 148.707L5.41046 147.829L5.73377 146.958L6.05707 146.096L6.38038 145.244L6.70369 144.402L7.027 143.572L7.35031 142.754L7.67361 141.948L7.99692 141.157L8.32023 140.38L8.64354 139.619L8.96685 138.874L9.29016 138.145L9.61346 137.434L9.93677 136.741L10.2601 136.067L10.5834 135.413L10.9067 134.779L11.23 134.166L11.5533 133.574L11.8766 133.005L12.1999 132.458L12.5232 131.934L12.8465 131.434L13.1699 130.958L13.4932 130.506L13.8165 130.08L14.1398 129.679L14.4631 129.304L14.7864 128.956L15.1097 128.634L15.433 128.339L15.7563 128.071L16.0796 127.83L16.4029 127.618L16.7262 127.433L17.0496 127.276L17.3729 127.148L17.6962 127.048L18.0195 126.977L18.3428 126.934L18.6661 126.919L18.9894 126.934L19.3127 126.977L19.636 127.048L19.9593 127.148L20.2826 127.276L20.6059 127.433L20.9293 127.618L21.2526 127.83L21.5759 128.071L21.8992 128.339L22.2225 128.634L22.5458 128.956L22.8691 129.304L23.1924 129.679L23.5157 130.08L23.839 130.506L24.1623 130.958L24.4856 131.434L24.809 131.934L25.1323 132.458L25.4556 133.005L25.7789 133.574L26.1022 134.166L26.4255 134.779L26.7488 135.413L27.0721 136.067L27.3954 136.741L27.7187 137.434L28.042 138.145L28.3653 138.874L28.6887 139.619L29.012 140.38L29.3353 141.157L29.6586 141.948L29.9819 142.754L30.3052 143.572L30.6285 144.402L30.9518 145.244L31.2751 146.096L31.5984 146.958L31.9217 147.829L32.245 148.707L32.5684 149.593L32.8917 150.485L33.215 151.383L33.5383 152.285L33.8616 153.19L34.1849 154.098L34.5082 155.008L34.8315 155.919L35.1548 156.83L35.4781 157.74L35.8014 158.648L36.1247 159.554L36.4481 160.456L36.7714 161.353L37.0947 162.245L37.418 163.131L37.7413 164.01L38.0646 164.881L38.3879 165.743L38.7112 166.595L39.0345 167.437L39.3578 168.267L39.6811 169.085L40.0044 169.89L40.3277 170.682L40.6511 171.458L40.9744 172.22L41.2977 172.965L41.621 173.694L41.9443 174.405L42.2676 175.097L42.5909 175.771L42.9142 176.425L43.2375 177.059L43.5608 177.673L43.8841 178.264L44.2074 178.834L44.5308 179.381L44.8541 179.905L45.1774 180.405L45.5007 180.881L45.824 181.332L46.1473 181.759L46.4706 182.159L46.7939 182.534L47.1172 182.883L47.4405 183.205L47.7638 183.5L48.0871 183.768L48.4105 184.008L48.7338 184.221L49.0571 184.406L49.3804 184.562L49.7037 184.691L50.027 184.791L50.3503 184.862L50.6736 184.905L50.9969 184.919L51.3202 184.905L51.6435 184.862L51.9668 184.791L52.2902 184.691L52.6135 184.562L52.9368 184.406L53.2601 184.221L53.5834 184.008L53.9067 183.768L54.23 183.5L54.5533 183.205L54.8766 182.883L55.1999 182.534L55.5232 182.159L55.8465 181.759L56.1699 181.332L56.4932 180.881L56.8165 180.405L57.1398 179.905L57.4631 179.381L57.7864 178.834L58.1097 178.264L58.433 177.673L58.7563 177.059L59.0796 176.425L59.4029 175.771L59.7262 175.097L60.0496 174.405L60.3729 173.694L60.6962 172.965L61.0195 172.22L61.3428 171.458L61.6661 170.682L61.9894 169.89L62.3127 169.085L62.636 168.267L62.9593 167.437L63.2826 166.595L63.6059 165.743L63.9293 164.881L64.2526 164.01L64.5759 163.131L64.8992 162.245L65.2225 161.353L65.5458 160.456L65.8691 159.554L66.1924 158.648L66.5157 157.74L66.839 156.83L67.1623 155.919L67.4856 155.008L67.809 154.098L68.1323 153.19L68.4556 152.285L68.7789 151.383L69.1022 150.485L69.4255 149.593L69.7488 148.707L70.0721 147.829L70.3954 146.958L70.7187 146.096L71.042 145.244L71.3653 144.402L71.6887 143.572L72.012 142.754L72.3353 141.948L72.6586 141.157L72.9819 140.38L73.3052 139.619L73.6285 138.874L73.9518 138.145L74.2751 137.434L74.5984 136.741L74.9217 136.067L75.245 135.413L75.5683 134.779L75.8917 134.166L76.215 133.574L76.5383 133.005L76.8616 132.458L77.1849 131.934L77.5082 131.434L77.8315 130.958L78.1548 130.506L78.4781 130.08L78.8014 129.679L79.1247 129.304L79.448 128.956L79.7714 128.634L80.0947 128.339L80.418 128.071L80.7413 127.83L81.0646 127.618L81.3879 127.433L81.7112 127.276L82.0345 127.148L82.3578 127.048L82.6811 126.977L83.0044 126.934L83.3277 126.919L83.6511 126.934L83.9744 126.977L84.2977 127.048L84.621 127.148L84.9443 127.276L85.2676 127.433L85.5909 127.618L85.9142 127.83L86.2375 128.071L86.5608 128.339L86.8841 128.634L87.2074 128.956L87.5308 129.304L87.8541 129.679L88.1774 130.08L88.5007 130.506L88.824 130.958L89.1473 131.434L89.4706 131.934L89.7939 132.458L90.1172 133.005L90.4405 133.574L90.7638 134.166L91.0871 134.779L91.4105 135.413L91.7338 136.067L92.0571 136.741L92.3804 137.434L92.7037 138.145L93.027 138.874L93.3503 139.619L93.6736 140.38L93.9969 141.157L94.3202 141.948L94.6435 142.754L94.9668 143.572L95.2902 144.402L95.6135 145.244L95.9368 146.096L96.2601 146.958L96.5834 147.829L96.9067 148.707L97.23 149.593L97.5533 150.485L97.8766 151.383L98.1999 152.285L98.5232 153.19L98.8465 154.098L99.1699 155.008L99.4932 155.919L99.8165 156.83L100.14 157.74L100.463 158.648L100.786 159.554L101.11 160.456L101.433 161.353L101.756 162.245L102.08 163.131L102.403 164.01L102.726 164.881L103.05 165.743L103.373 166.595L103.696 167.437L104.019 168.267L104.343 169.085L104.666 169.89L104.989 170.682L105.313 171.458L105.636 172.22L105.959 172.965L106.283 173.694L106.606 174.405L106.929 175.097L107.253 175.771L107.576 176.425L107.899 177.059L108.222 177.673L108.546 178.264L108.869 178.834L109.192 179.381L109.516 179.905L109.839 180.405L110.162 180.881L110.486 181.332L110.809 181.759L111.132 182.159L111.456 182.534L111.779 182.883L112.102 183.205L112.425 183.5L112.749 183.768L113.072 184.008L113.395 184.221L113.719 184.406L114.042 184.562L114.365 184.691L114.689 184.791L115.012 184.862L115.335 184.905L115.659 184.919L115.982 184.905L116.305 184.862L116.628 184.791L116.952 184.691L117.275 184.562L117.598 184.406L117.922 184.221L118.245 184.008L118.568 183.768L118.892 183.5L119.215 183.205L119.538 182.883L119.862 182.534L120.185 182.159L120.508 181.759L120.832 181.332L121.155 180.881L121.478 180.405L121.801 179.905L122.125 179.381L122.448 178.834L122.771 178.264L123.095 177.673L123.418 177.059L123.741 176.425L124.065 175.771L124.388 175.097L124.711 174.405L125.035 173.694L125.358 172.965L125.681 172.22L126.004 171.458L126.328 170.682L126.651 169.89L126.974 169.085L127.298 168.267L127.621 167.437L127.944 166.595L128.268 165.743L128.591 164.881L128.914 164.01L129.238 163.131L129.561 162.245L129.884 161.353L130.207 160.456L130.531 159.554L130.854 158.648L131.177 157.74L131.501 156.83" stroke="#EF7600" stroke-width="5" stroke-miterlimit="10" stroke-linecap="round" stroke-linejoin="round"/>
<path d="M238.725 2.4307H193.041C191.463 2.4307 190.179 3.71391 190.179 5.29181V85.6062C190.179 87.1834 191.463 88.4673 193.041 88.4673H238.725C240.302 88.4673 241.586 87.1834 241.586 85.6062V5.29181C241.586 3.71391 240.302 2.4307 238.725 2.4307Z" fill="#D0CFCE"/>
<path d="M220.089 17.833C220.089 14.9234 217.05 9.91932 215.552 9.91932C215.552 9.91932 211.902 11.4211 211.902 14.3307L211.501 42.8639L220.501 42.9193L220.089 17.833Z" fill="#9B9B9A"/>
<path d="M211.327 41.7165V76.8319C211.327 78.4091 212.826 81.1236 215.619 81.1236C218.412 81.1236 220.396 78.4091 220.396 76.8319V41.7165H211.327Z" fill="#9B9B9A"/>
<path d="M238.725 112.431H193.041C191.463 112.431 190.179 113.714 190.179 115.292V195.606C190.179 197.183 191.463 198.467 193.041 198.467H238.725C240.302 198.467 241.586 197.183 241.586 195.606V115.292C241.586 113.714 240.302 112.431 238.725 112.431Z" fill="#D0CFCE"/>
<path d="M220.089 127.833C220.089 121.919 218.001 119.919 215.552 119.919C213.103 119.919 211.902 121.421 211.902 124.331L211.501 152.864L220.501 152.919L220.089 127.833Z" fill="#9B9B9A"/>
<path d="M211.327 151.716V186.832C211.327 188.409 212.826 191.124 215.619 191.124C218.412 191.124 220.396 188.409 220.396 186.832V151.716H211.327Z" fill="#9B9B9A"/>
<path d="M211.501 26.9193V14.1208C211.501 11.8005 213.408 9.91932 215.76 9.91932H216.242C218.594 9.91932 220.501 11.8005 220.501 14.1208V26.9193" stroke="black" stroke-width="2" stroke-miterlimit="10" stroke-linecap="round" stroke-linejoin="round"/>
<path d="M220.501 26.9193V75.0384C220.501 78.2864 218.594 80.9193 216.242 80.9193H215.76C213.408 80.9193 211.501 78.2864 211.501 75.0384V26.9193" stroke="black" stroke-width="2" stroke-miterlimit="10" stroke-linecap="round" stroke-linejoin="round"/>
<path d="M206.501 8.94937V22.7943H226.238V8.94937H206.501Z" fill="#3F3F3F"/>
<path d="M226.238 8.91932H206.501V22.7943H226.238V8.91932Z" stroke="black" stroke-width="2" stroke-miterlimit="10" stroke-linecap="round" stroke-linejoin="round"/>
<path d="M212.108 15.9083H220.532" stroke="black" stroke-width="2" stroke-miterlimit="10" stroke-linecap="round" stroke-linejoin="round"/>
<path d="M238.724 89.8982H193.041C190.671 89.8982 188.749 87.9766 188.749 85.6065V5.29167C188.749 2.92152 190.671 1 193.041 1H238.724C241.095 1 243.016 2.92152 243.016 5.29167V85.6065C243.016 87.9766 241.095 89.8982 238.724 89.8982Z" stroke="black" stroke-width="2" stroke-miterlimit="10" stroke-linecap="round" stroke-linejoin="round"/>
<path d="M233.04 20.0411H236.829" stroke="black" stroke-width="2" stroke-miterlimit="10" stroke-linecap="round" stroke-linejoin="round"/>
<path d="M233.04 11.9881H236.829" stroke="black" stroke-width="2" stroke-miterlimit="10" stroke-linecap="round" stroke-linejoin="round"/>
<path d="M233.056 27.492H236.829" stroke="black" stroke-width="2" stroke-miterlimit="10" stroke-linecap="round" stroke-linejoin="round"/>
<path d="M233.04 34.2656H236.829" stroke="black" stroke-width="2" stroke-miterlimit="10" stroke-linecap="round" stroke-linejoin="round"/>
<path d="M233.056 41.7165H236.829" stroke="black" stroke-width="2" stroke-miterlimit="10" stroke-linecap="round" stroke-linejoin="round"/>
<path d="M233.04 49.7695H236.829" stroke="black" stroke-width="2" stroke-miterlimit="10" stroke-linecap="round" stroke-linejoin="round"/>
<path d="M233.042 57.2204H236.829" stroke="black" stroke-width="2" stroke-miterlimit="10" stroke-linecap="round" stroke-linejoin="round"/>
<path d="M233.026 63.9939H236.829" stroke="black" stroke-width="2" stroke-miterlimit="10" stroke-linecap="round" stroke-linejoin="round"/>
<path d="M233.013 71.445H236.829" stroke="black" stroke-width="2" stroke-miterlimit="10" stroke-linecap="round" stroke-linejoin="round"/>
<path d="M233.034 78.1913H236.829" stroke="black" stroke-width="2" stroke-miterlimit="10" stroke-linecap="round" stroke-linejoin="round"/>
<path d="M194.945 20.0411H198.734" stroke="black" stroke-width="2" stroke-miterlimit="10" stroke-linecap="round" stroke-linejoin="round"/>
<path d="M194.945 11.9881H198.734" stroke="black" stroke-width="2" stroke-miterlimit="10" stroke-linecap="round" stroke-linejoin="round"/>
<path d="M194.961 27.492H198.734" stroke="black" stroke-width="2" stroke-miterlimit="10" stroke-linecap="round" stroke-linejoin="round"/>
<path d="M194.945 34.2656H198.734" stroke="black" stroke-width="2" stroke-miterlimit="10" stroke-linecap="round" stroke-linejoin="round"/>
<path d="M194.961 41.7165H198.734" stroke="black" stroke-width="2" stroke-miterlimit="10" stroke-linecap="round" stroke-linejoin="round"/>
<path d="M194.945 49.7695H198.734" stroke="black" stroke-width="2" stroke-miterlimit="10" stroke-linecap="round" stroke-linejoin="round"/>
<path d="M194.947 57.2204H198.734" stroke="black" stroke-width="2" stroke-miterlimit="10" stroke-linecap="round" stroke-linejoin="round"/>
<path d="M194.931 63.9939H198.734" stroke="black" stroke-width="2" stroke-miterlimit="10" stroke-linecap="round" stroke-linejoin="round"/>
<path d="M194.918 71.445H198.734" stroke="black" stroke-width="2" stroke-miterlimit="10" stroke-linecap="round" stroke-linejoin="round"/>
<path d="M194.939 78.1913H198.734" stroke="black" stroke-width="2" stroke-miterlimit="10" stroke-linecap="round" stroke-linejoin="round"/>
<path d="M211.501 136.919V124.121C211.501 121.8 213.408 119.919 215.76 119.919H216.242C218.594 119.919 220.501 121.8 220.501 124.121V136.919" stroke="black" stroke-width="2" stroke-miterlimit="10" stroke-linecap="round" stroke-linejoin="round"/>
<path d="M220.501 136.919V185.038C220.501 188.286 218.594 190.919 216.242 190.919H215.76C213.408 190.919 211.501 188.286 211.501 185.038V136.919" stroke="black" stroke-width="2" stroke-miterlimit="10" stroke-linecap="round" stroke-linejoin="round"/>
<path d="M206.501 178.949V192.794H226.238V178.949H206.501Z" fill="#3F3F3F"/>
<path d="M226.238 178.919H206.501V192.794H226.238V178.919Z" stroke="black" stroke-width="2" stroke-miterlimit="10" stroke-linecap="round" stroke-linejoin="round"/>
<path d="M212.108 185.908H220.532" stroke="black" stroke-width="2" stroke-miterlimit="10" stroke-linecap="round" stroke-linejoin="round"/>
<path d="M238.724 199.898H193.041C190.671 199.898 188.749 197.977 188.749 195.606V115.292C188.749 112.922 190.671 111 193.041 111H238.724C241.095 111 243.016 112.922 243.016 115.292V195.606C243.016 197.977 241.095 199.898 238.724 199.898Z" stroke="black" stroke-width="2" stroke-miterlimit="10" stroke-linecap="round" stroke-linejoin="round"/>
<path d="M233.04 130.041H236.829" stroke="black" stroke-width="2" stroke-miterlimit="10" stroke-linecap="round" stroke-linejoin="round"/>
<path d="M233.04 121.988H236.829" stroke="black" stroke-width="2" stroke-miterlimit="10" stroke-linecap="round" stroke-linejoin="round"/>
<path d="M233.056 137.492H236.829" stroke="black" stroke-width="2" stroke-miterlimit="10" stroke-linecap="round" stroke-linejoin="round"/>
<path d="M233.04 144.266H236.829" stroke="black" stroke-width="2" stroke-miterlimit="10" stroke-linecap="round" stroke-linejoin="round"/>
<path d="M233.056 151.716H236.829" stroke="black" stroke-width="2" stroke-miterlimit="10" stroke-linecap="round" stroke-linejoin="round"/>
<path d="M233.04 159.769H236.829" stroke="black" stroke-width="2" stroke-miterlimit="10" stroke-linecap="round" stroke-linejoin="round"/>
<path d="M233.042 167.22H236.829" stroke="black" stroke-width="2" stroke-miterlimit="10" stroke-linecap="round" stroke-linejoin="round"/>
<path d="M233.026 173.994H236.829" stroke="black" stroke-width="2" stroke-miterlimit="10" stroke-linecap="round" stroke-linejoin="round"/>
<path d="M233.013 181.445H236.829" stroke="black" stroke-width="2" stroke-miterlimit="10" stroke-linecap="round" stroke-linejoin="round"/>
<path d="M233.034 188.191H236.829" stroke="black" stroke-width="2" stroke-miterlimit="10" stroke-linecap="round" stroke-linejoin="round"/>
<path d="M194.945 130.041H198.734" stroke="black" stroke-width="2" stroke-miterlimit="10" stroke-linecap="round" stroke-linejoin="round"/>
<path d="M194.945 121.988H198.734" stroke="black" stroke-width="2" stroke-miterlimit="10" stroke-linecap="round" stroke-linejoin="round"/>
<path d="M194.961 137.492H198.734" stroke="black" stroke-width="2" stroke-miterlimit="10" stroke-linecap="round" stroke-linejoin="round"/>
<path d="M194.945 144.266H198.734" stroke="black" stroke-width="2" stroke-miterlimit="10" stroke-linecap="round" stroke-linejoin="round"/>
<path d="M194.961 151.716H198.734" stroke="black" stroke-width="2" stroke-miterlimit="10" stroke-linecap="round" stroke-linejoin="round"/>
<path d="M194.945 159.769H198.734" stroke="black" stroke-width="2" stroke-miterlimit="10" stroke-linecap="round" stroke-linejoin="round"/>
<path d="M194.947 167.22H198.734" stroke="black" stroke-width="2" stroke-miterlimit="10" stroke-linecap="round" stroke-linejoin="round"/>
<path d="M194.931 173.994H198.734" stroke="black" stroke-width="2" stroke-miterlimit="10" stroke-linecap="round" stroke-linejoin="round"/>
<path d="M194.918 181.445H198.734" stroke="black" stroke-width="2" stroke-miterlimit="10" stroke-linecap="round" stroke-linejoin="round"/>
<path d="M194.939 188.191H198.734" stroke="black" stroke-width="2" stroke-miterlimit="10" stroke-linecap="round" stroke-linejoin="round"/>
<path d="M300.501 49.9193L300.824 49.0084L301.147 48.0984L301.471 47.1902L301.794 46.2847L302.117 45.3827L302.441 44.4853L302.764 43.5932L303.087 42.7073L303.41 41.8286L303.734 40.9578L304.057 40.0959L304.38 39.2437L304.704 38.402L305.027 37.5717L305.35 36.7536L305.674 35.9485L305.997 35.1571L306.32 34.3803L306.644 33.6189L306.967 32.8736L307.29 32.145L307.613 31.434L307.937 30.7413L308.26 30.0675L308.583 29.4132L308.907 28.7792L309.23 28.1661L309.553 27.5744L309.877 27.0048L310.2 26.4578L310.523 25.934L310.847 25.4338L311.17 24.9578L311.493 24.5064L311.816 24.0801L312.14 23.6793L312.463 23.3044L312.786 22.9558L313.11 22.6338L313.433 22.3387L313.756 22.0708L314.08 21.8304L314.403 21.6177L314.726 21.433L315.05 21.2764L315.373 21.148L315.696 21.048L316.019 20.9765L316.343 20.9336L316.666 20.9193L316.989 20.9336L317.313 20.9765L317.636 21.048L317.959 21.148L318.283 21.2764L318.606 21.433L318.929 21.6177L319.253 21.8304L319.576 22.0708L319.899 22.3387L320.222 22.6338L320.546 22.9558L320.869 23.3044L321.192 23.6793L321.516 24.0801L321.839 24.5064L322.162 24.9578L322.486 25.4338L322.809 25.934L323.132 26.4578L323.456 27.0048L323.779 27.5744L324.102 28.1661L324.425 28.7792L324.749 29.4132L325.072 30.0675L325.395 30.7413L325.719 31.434L326.042 32.145L326.365 32.8736L326.689 33.6189L327.012 34.3803L327.335 35.1571L327.659 35.9485L327.982 36.7536L328.305 37.5717L328.629 38.402L328.952 39.2437L329.275 40.0959L329.598 40.9578L329.922 41.8286L330.245 42.7073L330.568 43.5932L330.892 44.4853L331.215 45.3827L331.538 46.2847L331.862 47.1902L332.185 48.0984L332.508 49.0084L332.832 49.9193L333.155 50.8302L333.478 51.7402L333.801 52.6485L334.125 53.554L334.448 54.4559L334.771 55.3534L335.095 56.2455L335.418 57.1313L335.741 58.0101L336.065 58.8808L336.388 59.7427L336.711 60.5949L337.035 61.4366L337.358 62.2669L337.681 63.085L338.004 63.8902L338.328 64.6815L338.651 65.4583L338.974 66.2197L339.298 66.9651L339.621 67.6936L339.944 68.4046L340.268 69.0974L340.591 69.7712L340.914 70.4254L341.238 71.0594L341.561 71.6725L341.884 72.2642L342.207 72.8338L342.531 73.3808L342.854 73.9047L343.177 74.4048L343.501 74.8808L343.824 75.3322L344.147 75.7585L344.471 76.1593L344.794 76.5342L345.117 76.8828L345.441 77.2049L345.764 77.5L346.087 77.7678L346.41 78.0082L346.734 78.2209L347.057 78.4057L347.38 78.5623L347.704 78.6906L348.027 78.7906L348.35 78.8621L348.674 78.905L348.997 78.9193L349.32 78.905L349.644 78.8621L349.967 78.7906L350.29 78.6906L350.613 78.5623L350.937 78.4057L351.26 78.2209L351.583 78.0082L351.907 77.7678L352.23 77.5L352.553 77.2049L352.877 76.8828L353.2 76.5342L353.523 76.1593L353.847 75.7585L354.17 75.3322L354.493 74.8808L354.816 74.4048L355.14 73.9047L355.463 73.3808L355.786 72.8338L356.11 72.2642L356.433 71.6725L356.756 71.0594L357.08 70.4254L357.403 69.7712L357.726 69.0974L358.05 68.4046L358.373 67.6936L358.696 66.9651L359.019 66.2197L359.343 65.4583L359.666 64.6815L359.989 63.8902L360.313 63.085L360.636 62.2669L360.959 61.4366L361.283 60.5949L361.606 59.7427L361.929 58.8808L362.253 58.0101L362.576 57.1313L362.899 56.2455L363.222 55.3534L363.546 54.4559L363.869 53.554L364.192 52.6485L364.516 51.7402L364.839 50.8302L365.162 49.9193L365.486 49.0084L365.809 48.0984L366.132 47.1902L366.456 46.2847L366.779 45.3827L367.102 44.4853L367.425 43.5932L367.749 42.7073L368.072 41.8286L368.395 40.9578L368.719 40.0959L369.042 39.2437L369.365 38.402L369.689 37.5717L370.012 36.7536L370.335 35.9485L370.659 35.1571L370.982 34.3803L371.305 33.6189L371.628 32.8736L371.952 32.145L372.275 31.434L372.598 30.7413L372.922 30.0675L373.245 29.4132L373.568 28.7792L373.892 28.1661L374.215 27.5744L374.538 27.0048L374.862 26.4578L375.185 25.934L375.508 25.4338L375.832 24.9578L376.155 24.5064L376.478 24.0801L376.801 23.6793L377.125 23.3044L377.448 22.9558L377.771 22.6338L378.095 22.3387L378.418 22.0708L378.741 21.8304L379.065 21.6177L379.388 21.433L379.711 21.2764L380.035 21.148L380.358 21.048L380.681 20.9765L381.004 20.9336L381.328 20.9193L381.651 20.9336L381.974 20.9765L382.298 21.048L382.621 21.148L382.944 21.2764L383.268 21.433L383.591 21.6177L383.914 21.8304L384.238 22.0708L384.561 22.3387L384.884 22.6338L385.207 22.9558L385.531 23.3044L385.854 23.6793L386.177 24.0801L386.501 24.5064L386.824 24.9578L387.147 25.4338L387.471 25.934L387.794 26.4578L388.117 27.0048L388.441 27.5744L388.764 28.1661L389.087 28.7792L389.41 29.4132L389.734 30.0675L390.057 30.7413L390.38 31.434L390.704 32.145L391.027 32.8736L391.35 33.6189L391.674 34.3803L391.997 35.1571L392.32 35.9485L392.644 36.7536L392.967 37.5717L393.29 38.402L393.613 39.2437L393.937 40.0959L394.26 40.9578L394.583 41.8286L394.907 42.7073L395.23 43.5932L395.553 44.4853L395.877 45.3827L396.2 46.2847L396.523 47.1902L396.847 48.0984L397.17 49.0084L397.493 49.9193L397.816 50.8302L398.14 51.7402L398.463 52.6485L398.786 53.554L399.11 54.4559L399.433 55.3534L399.756 56.2455L400.08 57.1313L400.403 58.0101L400.726 58.8808L401.05 59.7427L401.373 60.5949L401.696 61.4366L402.019 62.2669L402.343 63.085L402.666 63.8902L402.989 64.6815L403.313 65.4583L403.636 66.2197L403.959 66.9651L404.283 67.6936L404.606 68.4046L404.929 69.0974L405.253 69.7712L405.576 70.4254L405.899 71.0594L406.222 71.6725L406.546 72.2642L406.869 72.8338L407.192 73.3808L407.516 73.9047L407.839 74.4048L408.162 74.8808L408.486 75.3322L408.809 75.7585L409.132 76.1593L409.456 76.5342L409.779 76.8828L410.102 77.2049L410.425 77.5L410.749 77.7678L411.072 78.0082L411.395 78.2209L411.719 78.4057L412.042 78.5623L412.365 78.6906L412.689 78.7906L413.012 78.8621L413.335 78.905L413.659 78.9193L413.982 78.905L414.305 78.8621L414.628 78.7906L414.952 78.6906L415.275 78.5623L415.598 78.4057L415.922 78.2209L416.245 78.0082L416.568 77.7678L416.892 77.5L417.215 77.2049L417.538 76.8828L417.862 76.5342L418.185 76.1593L418.508 75.7585L418.832 75.3322L419.155 74.8808L419.478 74.4048L419.801 73.9047L420.125 73.3808L420.448 72.8338L420.771 72.2642L421.095 71.6725L421.418 71.0594L421.741 70.4254L422.065 69.7712L422.388 69.0974L422.711 68.4046L423.035 67.6936L423.358 66.9651L423.681 66.2197L424.004 65.4583L424.328 64.6815L424.651 63.8902L424.974 63.085L425.298 62.2669L425.621 61.4366L425.944 60.5949L426.268 59.7427L426.591 58.8808L426.914 58.0101L427.238 57.1313L427.561 56.2455L427.884 55.3534L428.207 54.4559L428.531 53.554L428.854 52.6485L429.177 51.7402L429.501 50.8302" stroke="#EF7600" stroke-width="5" stroke-miterlimit="10" stroke-linecap="round" stroke-linejoin="round"/>
<path d="M300.001 159.919H428.501" stroke="#EF7600" stroke-width="4" stroke-linecap="round"/>
<path d="M255.501 48.9193C254.948 48.9193 254.501 49.367 254.501 49.9193C254.501 50.4716 254.948 50.9193 255.501 50.9193V49.9193V48.9193ZM288.208 50.6264C288.598 50.2359 288.598 49.6027 288.208 49.2122L281.844 42.8483C281.453 42.4577 280.82 42.4577 280.43 42.8483C280.039 43.2388 280.039 43.8719 280.43 44.2625L286.086 49.9193L280.43 55.5762C280.039 55.9667 280.039 56.5999 280.43 56.9904C280.82 57.3809 281.453 57.3809 281.844 56.9904L288.208 50.6264ZM255.501 49.9193V50.9193H287.501V49.9193V48.9193H255.501V49.9193Z" fill="black"/>
<path d="M145.501 48.9193C144.948 48.9193 144.501 49.367 144.501 49.9193C144.501 50.4716 144.948 50.9193 145.501 50.9193V49.9193V48.9193ZM178.208 50.6264C178.598 50.2359 178.598 49.6027 178.208 49.2122L171.844 42.8483C171.453 42.4577 170.82 42.4577 170.43 42.8483C170.039 43.2388 170.039 43.8719 170.43 44.2625L176.086 49.9193L170.43 55.5762C170.039 55.9667 170.039 56.5999 170.43 56.9904C170.82 57.3809 171.453 57.3809 171.844 56.9904L178.208 50.6264ZM145.501 49.9193V50.9193H177.501V49.9193V48.9193H145.501V49.9193Z" fill="black"/>
<path d="M255.501 158.919C254.948 158.919 254.501 159.367 254.501 159.919C254.501 160.472 254.948 160.919 255.501 160.919V159.919V158.919ZM288.208 160.626C288.598 160.236 288.598 159.603 288.208 159.212L281.844 152.848C281.453 152.458 280.82 152.458 280.43 152.848C280.039 153.239 280.039 153.872 280.43 154.262L286.086 159.919L280.43 165.576C280.039 165.967 280.039 166.6 280.43 166.99C280.82 167.381 281.453 167.381 281.844 166.99L288.208 160.626ZM255.501 159.919V160.919H287.501V159.919V158.919H255.501V159.919Z" fill="black"/>
<path d="M145.501 158.919C144.948 158.919 144.501 159.367 144.501 159.919C144.501 160.472 144.948 160.919 145.501 160.919V159.919V158.919ZM178.208 160.626C178.598 160.236 178.598 159.603 178.208 159.212L171.844 152.848C171.453 152.458 170.82 152.458 170.43 152.848C170.039 153.239 170.039 153.872 170.43 154.262L176.086 159.919L170.43 165.576C170.039 165.967 170.039 166.6 170.43 166.99C170.82 167.381 171.453 167.381 171.844 166.99L178.208 160.626ZM145.501 159.919V160.919H177.501V159.919V158.919H145.501V159.919Z" fill="black"/>
</svg>
